<svg width="1440" height="358" viewBox="0 0 1440 358" fill="none" xmlns="http://www.w3.org/2000/svg">
<path d="M1440 0H-1.31207e-05C-1.31207e-05 0 -2.70239 156.128 141.5 158C285.702 159.872 264.866 183.801 488 261C711.134 338.199 980.198 124.551 1090.5 285.5C1200.8 446.449 1440 285.5 1440 285.5V0Z" fill="url(#paint0_linear)"/>
<path d="M262.081 138V80H270.801V104.64H299.841V80H308.641C308.641 80.6933 308.641 82 308.641 83.92C308.641 85.7867 308.641 88.0267 308.641 90.64C308.641 93.2533 308.641 96.16 308.641 99.36C308.641 102.507 308.614 105.733 308.561 109.04C308.561 112.293 308.561 115.52 308.561 118.72C308.561 121.867 308.561 124.747 308.561 127.36C308.561 129.973 308.561 132.24 308.561 134.16C308.561 136.027 308.561 137.307 308.561 138H299.841V112.96H270.801V138H262.081ZM318.782 109.04C318.782 105.04 319.556 101.253 321.102 97.68C322.649 94.0533 324.756 90.88 327.422 88.16C330.142 85.44 333.289 83.3067 336.862 81.76C340.436 80.16 344.276 79.36 348.382 79.36C352.436 79.36 356.249 80.16 359.822 81.76C363.449 83.3067 366.596 85.44 369.262 88.16C371.982 90.88 374.116 94.0533 375.662 97.68C377.262 101.253 378.062 105.04 378.062 109.04C378.062 113.147 377.262 116.987 375.662 120.56C374.116 124.133 371.982 127.28 369.262 130C366.596 132.667 363.449 134.773 359.822 136.32C356.249 137.867 352.436 138.64 348.382 138.64C344.276 138.64 340.436 137.867 336.862 136.32C333.289 134.773 330.142 132.667 327.422 130C324.756 127.28 322.649 124.133 321.102 120.56C319.556 116.987 318.782 113.147 318.782 109.04ZM327.502 109.12C327.502 112.053 328.036 114.827 329.102 117.44C330.222 120 331.742 122.24 333.662 124.16C335.582 126.08 337.822 127.6 340.382 128.72C342.942 129.84 345.662 130.4 348.542 130.4C351.422 130.4 354.116 129.84 356.622 128.72C359.182 127.6 361.396 126.08 363.262 124.16C365.182 122.24 366.676 120 367.742 117.44C368.862 114.827 369.422 112.027 369.422 109.04C369.422 106.107 368.862 103.36 367.742 100.8C366.676 98.1867 365.182 95.92 363.262 94C361.342 92.08 359.102 90.56 356.542 89.44C354.036 88.32 351.342 87.76 348.462 87.76C345.582 87.76 342.862 88.32 340.302 89.44C337.742 90.56 335.502 92.08 333.582 94C331.716 95.92 330.222 98.1867 329.102 100.8C328.036 103.413 327.502 106.187 327.502 109.12ZM388.253 138V80H397.053V129.68H425.853V138H388.253ZM469.876 138C469.609 137.413 469.236 136.56 468.756 135.44C468.276 134.32 467.716 133.04 467.076 131.6C466.489 130.107 465.823 128.507 465.076 126.8C464.383 125.04 463.663 123.227 462.916 121.36H442.436L435.556 138H426.916L452.756 77.28C453.076 78.0267 453.636 79.3867 454.436 81.36C455.289 83.3333 456.276 85.7067 457.396 88.48C458.569 91.2 459.849 94.24 461.236 97.6C462.676 100.907 464.116 104.267 465.556 107.68C467.049 111.093 468.489 114.453 469.876 117.76C471.316 121.067 472.623 124.107 473.796 126.88C474.969 129.653 475.956 132.027 476.756 134C477.609 135.92 478.196 137.253 478.516 138H469.876ZM445.476 114H459.956C459.209 112.24 458.489 110.56 457.796 108.96C457.156 107.307 456.543 105.813 455.956 104.48C455.423 103.093 454.943 101.893 454.516 100.88C454.089 99.8667 453.769 99.0667 453.556 98.48C453.503 98.3733 453.369 98 453.156 97.36C452.996 96.72 452.863 96.1333 452.756 95.6C452.649 96.1333 452.489 96.72 452.276 97.36C452.063 98 451.929 98.3733 451.876 98.48L445.476 114ZM492.633 131.04L485.593 147.68H479.033C480.099 144.907 481.139 142.133 482.153 139.36C483.166 136.64 484.206 133.867 485.273 131.04H492.633ZM523.487 80H532.207V138H523.487V80ZM546.136 92.16L542.536 90.16C543.709 89.0933 544.536 87.76 545.016 86.16C545.549 84.5067 545.629 82.7467 545.256 80.88L549.736 80.32C550.163 82.56 550.056 84.72 549.416 86.8C548.776 88.8267 547.683 90.6133 546.136 92.16ZM560.753 77.44C561.233 78.1867 562.219 79.6267 563.713 81.76C565.259 83.84 567.019 86.2667 568.993 89.04C571.019 91.8133 573.153 94.7733 575.393 97.92C577.633 101.013 579.739 103.947 581.713 106.72C583.686 109.44 585.393 111.813 586.833 113.84C588.326 115.867 589.313 117.2 589.793 117.84C589.953 117.573 590.459 116.853 591.313 115.68C592.166 114.507 593.206 113.04 594.433 111.28C595.713 109.52 597.153 107.547 598.753 105.36C600.353 103.12 601.979 100.853 603.633 98.56C605.339 96.2133 606.993 93.8933 608.593 91.6C610.246 89.3067 611.766 87.2267 613.153 85.36C614.539 83.44 615.713 81.7867 616.673 80.4C617.686 78.96 618.406 77.9733 618.833 77.44V138H609.553V105.52C609.553 105.093 609.579 104.64 609.633 104.16C609.739 103.68 609.793 103.333 609.793 103.12C609.313 103.76 608.539 104.853 607.473 106.4C606.459 107.893 605.259 109.627 603.873 111.6C602.539 113.52 601.126 115.573 599.633 117.76C598.139 119.893 596.726 121.92 595.393 123.84C594.059 125.76 592.886 127.467 591.873 128.96C590.859 130.4 590.166 131.413 589.793 132C589.419 131.52 588.673 130.533 587.553 129.04C586.486 127.493 585.206 125.707 583.713 123.68C582.273 121.653 580.726 119.493 579.073 117.2C577.473 114.907 575.979 112.773 574.593 110.8C573.206 108.827 572.006 107.147 570.993 105.76C569.979 104.32 569.393 103.44 569.233 103.12C569.233 103.333 569.259 103.68 569.313 104.16C569.419 104.64 569.473 105.093 569.473 105.52V138H560.753V77.44ZM684.734 83.2L681.614 90.32C679.427 89.52 677.241 88.88 675.054 88.4C672.921 87.92 670.867 87.68 668.894 87.68C665.534 87.68 662.841 88.3733 660.814 89.76C658.841 91.1467 657.854 92.9067 657.854 95.04C657.854 96.8533 658.574 98.32 660.014 99.44C661.454 100.507 663.241 101.493 665.374 102.4C667.507 103.253 669.827 104.133 672.334 105.04C674.841 105.893 677.161 107.013 679.294 108.4C681.427 109.787 683.214 111.547 684.654 113.68C686.094 115.76 686.814 118.453 686.814 121.76C686.814 124.32 686.334 126.64 685.374 128.72C684.467 130.747 683.081 132.507 681.214 134C679.401 135.493 677.107 136.64 674.334 137.44C671.614 138.24 668.414 138.64 664.734 138.64C662.387 138.64 660.254 138.48 658.334 138.16C656.467 137.84 654.761 137.44 653.214 136.96C651.721 136.427 650.387 135.867 649.214 135.28C648.094 134.693 647.134 134.16 646.334 133.68L650.174 126.08C652.307 127.307 654.681 128.293 657.294 129.04C659.907 129.787 662.281 130.16 664.414 130.16C665.481 130.16 666.787 130.027 668.334 129.76C669.934 129.493 671.454 129.04 672.894 128.4C674.334 127.707 675.561 126.8 676.574 125.68C677.641 124.56 678.174 123.147 678.174 121.44C678.174 119.893 677.747 118.587 676.894 117.52C676.094 116.4 675.001 115.44 673.614 114.64C672.281 113.787 670.734 113.04 668.974 112.4C667.267 111.707 665.507 111.013 663.694 110.32C661.881 109.573 660.094 108.8 658.334 108C656.627 107.2 655.081 106.24 653.694 105.12C652.361 103.947 651.267 102.613 650.414 101.12C649.614 99.5733 649.214 97.7333 649.214 95.6C649.214 93.6267 649.614 91.68 650.414 89.76C651.214 87.84 652.414 86.1333 654.014 84.64C655.614 83.1467 657.587 81.9467 659.934 81.04C662.334 80.1333 665.107 79.68 668.254 79.68C670.174 79.68 672.041 79.84 673.854 80.16C675.721 80.48 677.401 80.8533 678.894 81.28C680.387 81.6533 681.641 82.0267 682.654 82.4C683.721 82.7733 684.414 83.04 684.734 83.2ZM692.688 109.04C692.688 105.04 693.462 101.253 695.008 97.68C696.555 94.0533 698.662 90.88 701.328 88.16C704.048 85.44 707.195 83.3067 710.768 81.76C714.342 80.16 718.182 79.36 722.288 79.36C726.342 79.36 730.155 80.16 733.728 81.76C737.355 83.3067 740.502 85.44 743.168 88.16C745.888 90.88 748.022 94.0533 749.568 97.68C751.168 101.253 751.968 105.04 751.968 109.04C751.968 113.147 751.168 116.987 749.568 120.56C748.022 124.133 745.888 127.28 743.168 130C740.502 132.667 737.355 134.773 733.728 136.32C730.155 137.867 726.342 138.64 722.288 138.64C718.182 138.64 714.342 137.867 710.768 136.32C707.195 134.773 704.048 132.667 701.328 130C698.662 127.28 696.555 124.133 695.008 120.56C693.462 116.987 692.688 113.147 692.688 109.04ZM701.408 109.12C701.408 112.053 701.942 114.827 703.008 117.44C704.128 120 705.648 122.24 707.568 124.16C709.488 126.08 711.728 127.6 714.288 128.72C716.848 129.84 719.568 130.4 722.448 130.4C725.328 130.4 728.022 129.84 730.528 128.72C733.088 127.6 735.302 126.08 737.168 124.16C739.088 122.24 740.582 120 741.648 117.44C742.768 114.827 743.328 112.027 743.328 109.04C743.328 106.107 742.768 103.36 741.648 100.8C740.582 98.1867 739.088 95.92 737.168 94C735.248 92.08 733.008 90.56 730.448 89.44C727.942 88.32 725.248 87.76 722.368 87.76C719.488 87.76 716.768 88.32 714.208 89.44C711.648 90.56 709.408 92.08 707.488 94C705.622 95.92 704.128 98.1867 703.008 100.8C701.942 103.413 701.408 106.187 701.408 109.12ZM783.599 138.64C780.506 138.64 777.626 138.133 774.959 137.12C772.292 136.107 769.946 134.693 767.919 132.88C765.946 131.013 764.372 128.8 763.199 126.24C762.079 123.627 761.519 120.72 761.519 117.52V80H770.319V117.28C770.319 119.147 770.639 120.88 771.279 122.48C771.972 124.027 772.906 125.413 774.079 126.64C775.306 127.813 776.719 128.747 778.319 129.44C779.919 130.08 781.679 130.4 783.599 130.4C785.466 130.4 787.199 130.08 788.799 129.44C790.452 128.747 791.866 127.813 793.039 126.64C794.266 125.413 795.226 124.027 795.919 122.48C796.612 120.88 796.959 119.147 796.959 117.28V80H805.759V117.52C805.759 120.72 805.172 123.627 803.999 126.24C802.879 128.8 801.306 131.013 799.279 132.88C797.306 134.693 794.959 136.107 792.239 137.12C789.572 138.133 786.692 138.64 783.599 138.64ZM819.347 77.44C819.827 78.1867 820.813 79.6267 822.307 81.76C823.853 83.84 825.613 86.2667 827.587 89.04C829.613 91.8133 831.747 94.7733 833.987 97.92C836.227 101.013 838.333 103.947 840.307 106.72C842.28 109.44 843.987 111.813 845.427 113.84C846.92 115.867 847.907 117.2 848.387 117.84C848.547 117.573 849.053 116.853 849.907 115.68C850.76 114.507 851.8 113.04 853.027 111.28C854.307 109.52 855.747 107.547 857.347 105.36C858.947 103.12 860.573 100.853 862.227 98.56C863.933 96.2133 865.587 93.8933 867.187 91.6C868.84 89.3067 870.36 87.2267 871.747 85.36C873.133 83.44 874.307 81.7867 875.267 80.4C876.28 78.96 877 77.9733 877.427 77.44V138H868.147V105.52C868.147 105.093 868.173 104.64 868.227 104.16C868.333 103.68 868.387 103.333 868.387 103.12C867.907 103.76 867.133 104.853 866.067 106.4C865.053 107.893 863.853 109.627 862.467 111.6C861.133 113.52 859.72 115.573 858.227 117.76C856.733 119.893 855.32 121.92 853.987 123.84C852.653 125.76 851.48 127.467 850.467 128.96C849.453 130.4 848.76 131.413 848.387 132C848.013 131.52 847.267 130.533 846.147 129.04C845.08 127.493 843.8 125.707 842.307 123.68C840.867 121.653 839.32 119.493 837.667 117.2C836.067 114.907 834.573 112.773 833.187 110.8C831.8 108.827 830.6 107.147 829.587 105.76C828.573 104.32 827.987 103.44 827.827 103.12C827.827 103.333 827.853 103.68 827.907 104.16C828.013 104.64 828.067 105.093 828.067 105.52V138H819.347V77.44ZM915.21 118.88V138H906.41V118.88C906.037 118.293 905.29 117.013 904.17 115.04C903.104 113.067 901.824 110.747 900.33 108.08C898.89 105.36 897.317 102.48 895.61 99.44C893.957 96.4 892.384 93.5467 890.89 90.88C889.45 88.16 888.17 85.8133 887.05 83.84C885.984 81.8667 885.264 80.5867 884.89 80H894.81C895.29 80.8 896.144 82.3467 897.37 84.64C898.597 86.88 899.957 89.44 901.45 92.32C902.944 95.1467 904.464 98.0267 906.01 100.96C907.557 103.84 908.864 106.32 909.93 108.4L910.81 111.04C911.024 110.613 911.21 110.187 911.37 109.76C911.53 109.28 911.69 108.827 911.85 108.4C912.97 106.32 914.277 103.84 915.77 100.96C917.264 98.0267 918.73 95.1467 920.17 92.32C921.664 89.44 922.997 86.88 924.17 84.64C925.397 82.3467 926.25 80.8 926.73 80H936.57L915.21 118.88ZM974.485 138C974.219 137.413 973.845 136.56 973.365 135.44C972.885 134.32 972.325 133.04 971.685 131.6C971.099 130.107 970.432 128.507 969.685 126.8C968.992 125.04 968.272 123.227 967.525 121.36H947.045L940.165 138H931.525L957.365 77.28C957.685 78.0267 958.245 79.3867 959.045 81.36C959.899 83.3333 960.885 85.7067 962.005 88.48C963.179 91.2 964.459 94.24 965.845 97.6C967.285 100.907 968.725 104.267 970.165 107.68C971.659 111.093 973.099 114.453 974.485 117.76C975.925 121.067 977.232 124.107 978.405 126.88C979.579 129.653 980.565 132.027 981.365 134C982.219 135.92 982.805 137.253 983.125 138H974.485ZM950.085 114H964.565C963.819 112.24 963.099 110.56 962.405 108.96C961.765 107.307 961.152 105.813 960.565 104.48C960.032 103.093 959.552 101.893 959.125 100.88C958.699 99.8667 958.379 99.0667 958.165 98.48C958.112 98.3733 957.979 98 957.765 97.36C957.605 96.72 957.472 96.1333 957.365 95.6C957.259 96.1333 957.099 96.72 956.885 97.36C956.672 98 956.539 98.3733 956.485 98.48L950.085 114ZM990.362 80H1004.92C1010.79 80 1015.75 80.88 1019.8 82.64C1023.86 84.4 1027.14 86.72 1029.64 89.6C1032.2 92.4267 1034.04 95.6267 1035.16 99.2C1036.34 102.72 1036.92 106.24 1036.92 109.76C1036.92 114.08 1036.15 118 1034.6 121.52C1033.06 124.987 1030.95 127.947 1028.28 130.4C1025.62 132.853 1022.52 134.747 1019 136.08C1015.48 137.36 1011.75 138 1007.8 138H990.362V80ZM1006.52 129.68C1009.62 129.68 1012.47 129.227 1015.08 128.32C1017.75 127.413 1020.04 126.107 1021.96 124.4C1023.94 122.64 1025.46 120.507 1026.52 118C1027.64 115.44 1028.2 112.507 1028.2 109.2C1028.2 105.68 1027.59 102.613 1026.36 100C1025.14 97.3867 1023.54 95.2267 1021.56 93.52C1019.59 91.76 1017.35 90.48 1014.84 89.68C1012.39 88.8267 1009.88 88.4 1007.32 88.4H999.082V129.68H1006.52ZM1047.24 138V80H1085.32V87.92H1056.04V104.88H1082.12V112.96H1056.04V129.92H1086.44V138H1047.24ZM1096.61 138V80H1134.69V87.92H1105.41V104.88H1131.49V112.96H1105.41V129.92H1135.81V138H1096.61ZM1154.79 109.04H1162.71C1164.84 109.04 1166.63 108.667 1168.07 107.92C1169.51 107.173 1170.63 106.267 1171.43 105.2C1172.28 104.133 1172.87 102.987 1173.19 101.76C1173.56 100.533 1173.75 99.44 1173.75 98.48C1173.75 97.4667 1173.56 96.3733 1173.19 95.2C1172.87 93.9733 1172.28 92.8533 1171.43 91.84C1170.57 90.7733 1169.43 89.8933 1167.99 89.2C1166.6 88.5067 1164.87 88.16 1162.79 88.16H1154.79V109.04ZM1145.99 138V80H1161.83C1164.87 80 1167.64 80.4 1170.15 81.2C1172.71 82 1174.89 83.2 1176.71 84.8C1178.57 86.3467 1180.01 88.2667 1181.03 90.56C1182.04 92.8 1182.55 95.3867 1182.55 98.32C1182.55 100.613 1182.2 102.907 1181.51 105.2C1180.81 107.44 1179.69 109.467 1178.15 111.28C1176.6 113.04 1174.57 114.48 1172.07 115.6C1169.56 116.72 1166.52 117.28 1162.95 117.28H1154.79V138H1145.99Z" fill="white"/>
<defs>
<linearGradient id="paint0_linear" x1="435.643" y1="80.4745" x2="691.576" y2="462.064" gradientUnits="userSpaceOnUse">
<stop stop-color="#2193B0"/>
<stop offset="1" stop-color="#6DD5ED"/>
</linearGradient>
</defs>
</svg>
